HIERARCHY
ROOT Hips
{
  OFFSET 90.7885 88.945 -76.2838
  CHANNELS 6 Xposition Yposition Zposition Zrotation Xrotation Yrotation
  JOINT LeftUpLeg
  {
    OFFSET 8.64259 1.95398 -2.38835
    CHANNELS 3 Zrotation Xrotation Yrotation
    JOINT LeftLeg
    {
      OFFSET 43.7702 0 0
      CHANNELS 3 Zrotation Xrotation Yrotation
      JOINT LeftFoot
      {
        OFFSET 40.6238 0 0
        CHANNELS 3 Zrotation Xrotation Yrotation
        JOINT LeftToeBase
        {
          OFFSET 12.7242 0 0
          CHANNELS 3 Zrotation Xrotation Yrotation
          End Site
          {
            OFFSET 0 0 0
          }
        }
      }
    }
  }
  JOINT RightUpLeg
  {
    OFFSET -8.2249 1.95398 -2.59336
    CHANNELS 3 Zrotation Xrotation Yrotation
    JOINT RightLeg
    {
      OFFSET 43.5653 0 0
      CHANNELS 3 Zrotation Xrotation Yrotation
      JOINT RightFoot
      {
        OFFSET 40.6238 0 0
        CHANNELS 3 Zrotation Xrotation Yrotation
        JOINT RightToeBase
        {
          OFFSET 12.7242 0 0
          CHANNELS 3 Zrotation Xrotation Yrotation
          End Site
          {
            OFFSET 0 0 0
          }
        }
      }
    }
  }
  JOINT Spine
  {
    OFFSET 0.165834 0.87714 6.61349
    CHANNELS 3 Zrotation Xrotation Yrotation
    JOINT Spine1
    {
      OFFSET 7.38963 1.71661e-005 0
      CHANNELS 3 Zrotation Xrotation Yrotation
      JOINT Spine2
      {
        OFFSET 11.9445 1.14441e-005 0
        CHANNELS 3 Zrotation Xrotation Yrotation
        JOINT Spine3
        {
          OFFSET 14.7254 4.19617e-005 0
          CHANNELS 3 Zrotation Xrotation Yrotation
          JOINT Spine4
          {
            OFFSET 10.9679 0 0
            CHANNELS 3 Zrotation Xrotation Yrotation
            JOINT RightShoulder
            {
              OFFSET 2.46616 -1.6653 3.69651
              CHANNELS 3 Zrotation Xrotation Yrotation
              JOINT RightArm
              {
                OFFSET 13.0012 0 0
                CHANNELS 3 Zrotation Xrotation Yrotation
                JOINT RightForeArm
                {
                  OFFSET 28.7848 1.52588e-005 0
                  CHANNELS 3 Zrotation Xrotation Yrotation
                  JOINT RightHand
                  {
                    OFFSET 26.5688 1.52588e-005 0
                    CHANNELS 3 Zrotation Xrotation Yrotation
                    End Site
                    {
                      OFFSET 0 0 0
                    }
                  }
                }
              }
            }
            JOINT LeftShoulder
            {
              OFFSET 2.38034 -1.29275 -3.7523
              CHANNELS 3 Zrotation Xrotation Yrotation
              JOINT LeftArm
              {
                OFFSET 16.3182 6.10352e-005 0
                CHANNELS 3 Zrotation Xrotation Yrotation
                JOINT LeftForeArm
                {
                  OFFSET 27.0901 0 0
                  CHANNELS 3 Zrotation Xrotation Yrotation
                  JOINT LeftHand
                  {
                    OFFSET 24.5451 1.52588e-005 0
                    CHANNELS 3 Zrotation Xrotation Yrotation
                    End Site
                    {
                      OFFSET 0 0 0
                    }
                  }
                }
              }
            }
            JOINT Neck
            {
              OFFSET 5.0226 -0.0266342 0
              CHANNELS 3 Zrotation Xrotation Yrotation
              JOINT Head
              {
                OFFSET 6.69363 2.86102e-005 0
                CHANNELS 3 Zrotation Xrotation Yrotation
                End Site
                {
                  OFFSET 0 0 0
                }
              }
            }
          }
        }
      }
    }
  }
}
MOTION
Frames:	12
Frame Time:	0.0416667
24.2875 93.6942 -44.7353 -98.511 -29.0187 -100.396 -174.367 13.0932 83.0198 -45.6076 11.5842 -3.96443 80.0514 9.15678 3.08711 13.1922 1.35304 1.06517 -176.015 14.9416 83.7293 -88.7023 -11.7559 -4.56208 66.6807 -4.08526 -3.17864 16.9069 -1.82257 5.5957 1.05619 7.53675 -88.8701 11.7959 2.63208 1.96305 0.126429 2.71588 1.84528 -22.411 1.9206 2.66315 -2.39837 1.92057 2.66315 90.7324 -24.7272 -107.378 50.1745 -13.8364 1.15713 9.73235 -18.6721 -5.1262 -21.484 -0.437382 -7.77657 -85.8592 -55.1052 85.6558 -3.18262 11.0588 -20.191 3.88816 -2.6549 -6.00397 1.84917 0.0507411 -0.524164 2.13809 2.64835 -6.89996 -8.78731 4.31857 -9.95376 
14.8029 101.595 -39.2721 -103.397 -33.027 -96.0007 -177.008 0.0443905 90.0101 -35.1966 10.1604 1.47078 65.7216 2.49797 1.82823 7.46103 0.731531 2.12722 -175.566 23.1227 93.7514 -80.4483 -2.89174 -3.67838 72.977 -7.19656 -3.83926 15.0889 -1.31337 4.84791 -0.03525 7.74677 -90.0262 11.3855 -0.0822688 -0.0431155 -0.28556 -0.0840919 -0.0394551 -22.8204 -0.0655145 -0.0658571 -2.80772 -0.0654933 -0.065863 90.3361 -24.9557 -108.127 48.1089 -13.3623 5.34368 8.16926 -16.6322 -8.85379 -19.7704 -0.0538826 -9.82494 -86.7358 -48.0502 83.3062 -8.7122 15.855 -22.1362 2.535 -4.77475 -7.83666 0.169682 -0.0396549 -2.81007 -11.0781 4.53564 -8.16984 -7.66889 5.20682 -5.93877 
6.36136 105.093 -33.8721 -102.889 -41.6217 -92.9569 -174.825 -2.65798 92.2522 -28.3192 2.23016 -1.23251 65.307 2.15472 -2.98573 9.04704 -0.171877 3.04052 -177.573 30.0351 96.1041 -67.4545 -5.13786 -3.23555 74.7884 -7.66543 -2.36737 15.5494 -0.883732 4.04377 -1.00527 7.91758 -90.6517 11.028 -2.30317 -1.07591 -0.641243 -2.34832 -0.97346 -23.1845 -1.87335 -1.71847 -3.1719 -1.87337 -1.71847 90.8586 -26.3934 -106.42 46.7926 -10.383 7.31556 7.80761 -15.6566 -8.70545 -19.4085 0.108661 -10.7008 -88.2673 -40.2229 79.3043 -12.4903 19.5824 -32.1747 1.18088 -0.231602 -2.17152 1.36417 -0.0845276 -4.186 -10.8924 3.63567 -12.1182 -8.54916 4.28815 -1.54032 
-1.97095 103.649 -28.4706 -101.793 -49.2954 -89.3927 -174.377 -4.12427 93.7963 -17.9426 4.86041 -2.01411 63.7342 1.82856 -8.66903 15.8491 -5.87176 8.74586 179.666 30.724 97.5865 -48.6301 -12.3299 -2.08881 75.2386 -7.96024 -3.25927 18.6164 -1.20738 4.2731 -1.73144 8.06417 -91.2589 10.7062 -4.02782 -2.13245 -0.959989 -4.11774 -1.95293 -23.5157 -3.20097 -3.2447 -3.50308 -3.20095 -3.2447 90.6508 -29.1215 -105.784 44.004 -8.4669 9.02691 8.38697 -15.3122 -7.05544 -18.9832 0.103153 -10.7829 -89.5579 -43.3817 77.9183 -7.27299 20.2866 -41.3264 -0.874756 2.0731 0.151595 3.08222 -0.0351543 -3.18437 -6.54889 1.78601 -14.7659 -10.6262 2.96332 0.832975 
-11.1769 98.6068 -23.2544 -101.679 -54.9799 -86.8753 -173.137 -2.81597 96.8216 -28.6167 9.86814 -0.0390593 81.3067 7.66346 -5.63325 10.846 3.82917 -1.81155 178.491 29.7842 99.659 -30.1734 -14.1083 -0.370662 72.3873 -6.87877 -2.85687 19.6082 -1.19964 4.13923 -1.99378 8.30898 -91.5163 10.1961 -4.6639 -2.61057 -1.46868 -4.77423 -2.4025 -24.028 -3.66415 -3.89187 -4.01537 -3.66417 -3.89188 90.986 -32.13 -104.097 42.2057 -8.18934 9.75766 8.51979 -17.2318 -6.75645 -17.5814 0.0752826 -11.8149 -90.5034 -44.6069 76.7073 -7.72843 20.043 -48.3281 -1.23744 8.53815 0.33937 0.915992 -0.0507096 -3.12494 -2.46151 -0.230417 -19.8464 -9.82884 1.96588 2.51144 
-21.5999 94.513 -15.7977 -105.273 -54.3777 -91.5493 -169.692 -15.7879 100.065 -27.324 8.75088 -0.564147 95.5869 11.9161 -9.75303 11.294 -0.734281 3.524 178.477 24.8109 100.094 -17.8562 -12.5016 0.124235 67.1949 -4.46108 -1.90243 21.3812 -1.1381 3.79699 -2.07251 8.59387 -91.0096 9.65849 -4.5882 -1.6483 -2.00508 -4.65629 -1.44439 -24.582 -3.88061 -2.95238 -4.56935 -3.88059 -2.95237 92.0731 -35.4804 -100.992 40.4184 -7.84839 6.91605 8.3151 -20.5717 -4.88861 -19.5714 -0.561499 -7.90986 -91.3466 -45.8372 75.6953 -15.7941 18.4788 -42.1311 3.37764 22.1318 -4.95826 -0.833464 -0.0618738 -2.29065 -0.450867 0.0476896 -23.9362 -8.23481 3.1966 2.23224 
-32.4656 91.999 -5.56484 -101.211 -52.2903 -88.0384 -166.937 -24.4811 102.446 -21.5673 9.89533 -1.02748 85.3283 9.78647 -3.37733 35.5793 1.59525 -4.0082 177.547 24.5232 102.271 -21.0177 -7.19521 1.33923 68.0259 -4.46183 -1.60275 20.6207 -0.662201 2.96327 -1.87064 7.95054 -91.1207 10.94 -4.2427 -1.82768 -0.725019 -4.31903 -1.63893 -23.2906 -3.49736 -3.01908 -3.27792 -3.49733 -3.01908 91.0659 -34.6689 -103.104 41.1987 -3.41617 10.1783 6.49859 -12.4102 -6.02094 -15.9446 0.209936 -11.6587 -91.3708 -49.8313 76.6428 -18.4831 22.119 -34.794 -0.352142 28.5799 -1.40947 -1.43517 -0.071667 -2.06317 -0.332224 0.17601 -20.8889 -7.79095 2.98731 1.17061 
-41.4528 90.1529 4.03316 -100.336 -52.9003 -89.3009 -166.993 -21.0803 102.25 -36.3429 14.4484 1.65199 68.2963 4.12172 -2.71538 42.1089 1.93401 -8.25523 174.025 29.6565 101.066 -41.4837 -3.17496 2.76547 63.7575 -1.46143 -2.63528 15.6694 0.658164 1.29676 -1.50099 7.85266 -91.3356 11.1279 -3.60754 -2.30759 -0.539902 -3.70557 -2.14649 -23.0839 -2.74756 -3.28499 -3.07125 -2.74758 -3.28499 89.9866 -33.27 -105.586 38.3507 -6.82392 6.27343 9.58371 -12.9857 -1.47949 -17.2134 -0.0248267 -9.68852 -91.2679 -51.2189 77.1162 -20.0829 25.7342 -28.6386 -2.63549 16.5813 -0.0016389 0.435468 -0.027374 -1.68083 14.2474 -1.91452 -11.0283 -11.7821 0.944162 0.462015 
-48.5764 88.1205 11.4085 -99.9781 -51.1231 -90.1802 -168.301 0.498243 102.883 -73.3598 24.7066 5.30765 61.7648 1.40697 0.357224 7.73948 2.03402 1.30393 172.672 29.1951 101.731 -55.686 -5.34913 2.61403 77.7508 -9.14181 -4.02683 15.551 1.18805 0.38615 -0.348472 7.94668 -91.3122 10.9552 -1.30141 -2.49035 -0.717455 -1.4097 -2.43073 -23.2338 -0.493211 -2.76614 -3.22115 -0.493197 -2.76613 90.1653 -29.246 -106.742 38.3712 -10.6102 -0.584443 10.0548 -16.0848 -2.43372 -16.8257 -0.171547 -9.91098 -91.1476 -54.7315 78.0756 -14.0761 21.6197 -22.7632 -1.05836 14.4894 -0.0659688 2.9836 0.111267 -0.585434 22.5635 -1.33578 3.04968 -10.0704 -2.00072 -3.30929 
-55.1398 91.8599 18.2012 -100.752 -51.4869 -95.9629 -171.773 19.3181 94.6839 -88.4082 17.1015 5.90981 65.615 3.10381 3.10133 7.25803 4.99726 -1.92676 171.721 19.1257 95.7672 -50.3559 -8.61221 2.07009 79.8015 -10.2389 -5.35282 17.5772 -0.0831755 2.34046 0.914992 7.86463 -90.4083 11.1559 1.63103 -0.976152 -0.514491 1.58651 -1.04701 -23.0568 1.849 -0.440713 -3.04418 1.849 -0.440716 91.4943 -22.9067 -106.5 42.9879 -18.1847 -4.48267 9.35777 -25.7204 -7.20035 -13.9505 -0.473803 -12.6754 -89.9336 -57.4243 80.3026 -8.38257 14.0649 -19.6257 2.54022 10.3275 -1.21232 3.40052 0.186662 1.37099 17.1406 -3.70549 6.10261 -9.27387 -4.85141 -7.98619 
-62.3887 99.9774 25.5867 -102.056 -47.9339 -102.699 -172.204 28.5919 87.3871 -77.1013 6.63028 2.23672 71.3129 5.40808 0.770311 4.86491 1.7312 1.67224 172.924 7.27136 89.6577 -37.4193 -12.7416 -2.2276 62.8201 -0.734355 -2.3828 23.6791 -1.5793 4.41024 1.93411 7.99906 -89.2254 10.8583 4.20888 1.14646 -0.806144 4.25524 0.959785 -23.3812 3.66957 2.35974 -3.3686 3.66958 2.35974 92.1742 -21.4675 -105.563 43.369 -26.9975 -10.024 11.0165 -32.1331 -7.56109 -13.8466 -0.728643 -13.5227 -89.0785 -57.2314 81.4537 -4.69573 11.5988 -12.3486 7.91841 16.1277 -12.4934 -2.21381 -0.0851655 -0.496151 11.2841 -6.14237 -0.606764 -9.48358 -5.18907 -10.3616 
-69.0241 103.45 32.6 -98.7858 -43.1823 -102.394 -174.207 34.9343 85.0214 -62.1928 7.03214 -0.145581 75.3003 6.68107 -2.3799 4.45856 0.0581078 3.31015 174.609 3.75537 88.2062 -33.6397 -23.4905 -6.09645 60.7036 -0.103886 -0.942884 20.9755 -0.670049 2.9182 2.37382 7.95682 -88.6787 10.91 5.33697 2.12509 -0.751356 5.4253 1.88758 -23.3382 4.45159 3.63265 -3.32559 4.45158 3.63265 90.188 -18.9247 -111.407 43.3857 -31.8145 -12.2588 10.3396 -31.6606 -9.98138 -15.8642 -0.741453 -11.788 -89.4528 -56.4555 80.7927 -2.30147 19.6485 -4.58576 4.74501 8.49894 -16.1932 -1.0523 -0.0721553 -2.82372 11.0998 -5.54586 -0.735652 -9.28736 -4.4442 -12.8002 
